<svg xmlns="http://www.w3.org/2000/svg"
 width="35" height="35" viewBox="0 0 512.000000 512.000000" stroke="#0285F4">

<g transform="translate(0.000000,512.000000) scale(0.100000,-0.100000)"
fill="#0285F4" stroke-width="1.5">
<path d="M692 4427 c-315 -315 -322 -323 -322 -362 0 -40 7 -47 608 -648 718
-718 632 -661 777 -517 l91 90 57 -58 57 -58 -55 -54 c-51 -50 -55 -58 -55
-100 0 -25 5 -51 12 -58 10 -10 -2 -26 -52 -77 -35 -36 -70 -65 -76 -65 -6 0
-37 11 -69 25 -255 113 -544 102 -690 -26 -28 -25 -35 -38 -35 -68 1 -33 14
-50 147 -189 l146 -153 -19 -356 -19 -356 -54 -18 c-65 -21 -97 -44 -134 -95
-79 -113 -19 -285 115 -330 126 -42 264 39 286 167 l7 44 50 3 c28 2 190 11
360 21 l310 18 150 -149 c145 -143 152 -148 192 -148 34 0 46 5 68 31 128 153
138 425 27 695 l-30 72 69 68 c54 53 71 66 81 56 7 -7 33 -12 58 -12 42 0 50
4 100 55 l54 55 58 -57 58 -57 -90 -91 c-144 -145 -201 -59 518 -778 601 -600
607 -607 647 -607 39 0 47 7 363 323 l322 322 0 45 0 45 -603 603 -602 602
-45 0 c-43 0 -48 -4 -132 -87 l-88 -88 -57 57 -57 57 52 55 c45 47 52 60 52
94 0 24 -6 45 -16 52 -13 12 -5 24 65 94 45 45 81 85 81 90 0 5 6 14 14 20 8
6 41 76 74 155 51 124 58 149 51 179 -6 29 -60 88 -277 304 -220 221 -275 271
-305 277 -32 8 -55 1 -186 -53 -83 -33 -151 -67 -151 -73 0 -7 -6 -13 -12 -13
-7 0 -48 -35 -90 -77 -70 -70 -80 -76 -98 -65 -11 6 -37 12 -57 12 -32 0 -46
-8 -90 -52 l-53 -53 -57 58 -58 57 88 88 c83 84 87 89 87 132 l0 45 -603 603
-602 602 -45 0 -45 0 -323 -323z m478 88 l105 -105 -120 -120 -120 -120 -107
107 -108 108 117 117 c65 65 120 118 123 118 3 0 52 -47 110 -105z m303 -303
l107 -107 -120 -120 -120 -120 -105 105 c-58 58 -105 109 -105 115 0 10 220
235 230 235 3 0 54 -48 113 -108z m-640 -244 l-118 -118 -107 107 -108 108
117 117 118 118 107 -107 108 -108 -117 -117z m927 -283 l-120 -120 -107 108
-108 107 120 120 120 120 107 -107 108 -108 -120 -120z m-622 -22 l-118 -118
-110 110 -110 110 117 117 118 118 110 -110 110 -110 -117 -117z m942 -58
l105 -105 -120 -120 -120 -120 -110 110 -110 110 115 115 c63 63 119 115 125
115 6 0 57 -47 115 -105z m-630 -20 l105 -105 -118 -118 -117 -117 -107 108
-108 107 115 115 c63 63 117 115 120 115 3 0 52 -47 110 -105z m1758 -408
l243 -243 -38 -92 -37 -93 -298 298 c-163 163 -296 298 -295 300 6 5 163 71
172 72 6 1 119 -108 253 -242z m-1455 105 l107 -107 -118 -118 -117 -117 -110
110 -110 110 115 115 c63 63 117 115 120 115 3 0 54 -48 113 -108z m1490 -704
l-58 -58 -317 317 c-267 267 -315 319 -305 333 6 8 31 35 56 59 l44 43 318
-318 319 -319 -57 -57z m-1133 557 l54 -55 -59 -60 -59 -60 -58 57 -58 57 57
58 c32 32 60 58 63 58 3 0 30 -25 60 -55z m673 -383 l387 -387 -88 -88 -88
-88 4 63 c3 53 0 68 -20 97 -87 128 -278 70 -278 -84 0 -110 104 -183 207
-145 21 8 4 -13 -65 -82 l-92 -93 -387 388 -388 387 93 92 c69 69 90 86 82 65
-37 -100 35 -207 139 -207 63 0 110 28 138 80 29 54 29 84 1 140 -37 74 -114
103 -193 74 -11 -3 20 34 70 85 49 50 90 91 90 91 0 0 174 -174 388 -388z
m-503 -507 l315 -315 -56 -56 -57 -56 -44 68 c-110 170 -301 367 -467 484 -51
36 -99 70 -107 75 -13 9 -7 20 33 62 26 28 53 52 58 52 6 1 152 -141 325 -314z
m-815 236 c226 -55 447 -189 655 -400 139 -141 223 -256 301 -416 78 -160 103
-258 104 -400 0 -94 -4 -118 -24 -162 -13 -29 -26 -53 -30 -53 -3 0 -319 313
-701 695 -519 520 -691 698 -683 706 48 48 238 63 378 30z m2175 -436 l105
-105 -120 -120 -120 -120 -107 107 -108 108 117 117 c65 65 120 118 123 118 3
0 52 -47 110 -105z m-470 30 l54 -55 -59 -60 -59 -60 -58 57 -58 57 57 58 c32
32 60 58 63 58 3 0 30 -25 60 -55z m-1160 -753 c-5 -2 -148 -11 -317 -21
l-308 -17 -36 36 -37 36 19 314 c10 173 18 317 19 320 0 3 151 -146 335 -330
184 -184 331 -336 325 -338z m1933 420 l107 -107 -120 -120 -120 -120 -105
105 c-58 58 -105 109 -105 115 0 10 220 235 230 235 3 0 54 -48 113 -108z
m-640 -244 l-118 -118 -107 107 -108 108 117 117 118 118 107 -107 108 -108
-117 -117z m927 -283 l-120 -120 -107 108 -108 107 120 120 120 120 107 -107
108 -108 -120 -120z m-622 -22 l-118 -118 -110 110 -110 110 117 117 118 118
110 -110 110 -110 -117 -117z m-2380 66 c80 -28 88 -145 12 -184 -46 -24 -78
-19 -116 19 -56 56 -42 130 30 162 38 16 36 16 74 3z m3322 -124 l105 -105
-115 -115 c-63 -63 -119 -115 -125 -115 -6 0 -57 47 -115 105 l-105 105 115
115 c63 63 119 115 125 115 6 0 57 -47 115 -105z m-630 -20 l105 -105 -118
-118 -117 -117 -107 108 -108 107 115 115 c63 63 117 115 120 115 3 0 52 -47
110 -105z m303 -303 l107 -107 -118 -118 -117 -117 -110 110 -110 110 115 115
c63 63 117 115 120 115 3 0 54 -48 113 -108z"/>
<path d="M2505 2680 c-55 -28 -78 -63 -83 -127 -4 -45 0 -59 21 -92 59 -90
179 -95 250 -12 61 72 35 184 -53 229 -55 27 -84 28 -135 2z"/>
<path d="M581 1684 c-59 -67 -108 -151 -141 -241 -171 -472 125 -982 621
-1069 232 -40 486 30 657 183 l47 42 -41 41 -42 42 -56 -46 c-69 -56 -147 -96
-246 -127 -96 -30 -261 -32 -360 -5 -219 60 -401 232 -476 451 -25 71 -28 95
-28 210 0 117 3 138 28 210 32 94 64 152 117 217 22 26 39 50 39 55 0 5 -17
26 -39 47 l-38 37 -42 -47z"/>
<path d="M767 1481 c-68 -91 -107 -210 -107 -321 0 -68 35 -193 72 -259 45
-80 140 -169 221 -209 157 -78 320 -78 472 -2 44 22 96 53 115 69 l35 30 -41
41 -41 42 -66 -45 c-165 -113 -381 -94 -521 46 -62 62 -90 111 -112 199 -29
112 -1 247 71 341 l34 44 -44 43 -43 42 -45 -61z"/>
</g>
</svg>
