<svg width="24" height="24" viewBox="0 0 32 32" fill="none" xmlns="http://www.w3.org/2000/svg">
<path d="M32 16.334C32 7.4975 24.8365 0.333984 16 0.333984C7.16352 0.333984 0 7.4975 0 16.334C0 23.8373 5.16608 30.1337 12.135 31.8629V21.2236H8.83584V16.334H12.135V14.2271C12.135 8.78135 14.5997 6.25718 19.9462 6.25718C20.96 6.25718 22.7091 6.45622 23.4246 6.65462V11.0866C23.047 11.0469 22.391 11.0271 21.5763 11.0271C18.953 11.0271 17.9392 12.021 17.9392 14.6047V16.334H23.1654L22.2675 21.2236H17.9392V32.2169C25.8605 31.2601 32 24.5145 32 16.334Z" fill="white"/>
</svg>
