<svg width="24" height="24" viewBox="0 0 32 32" fill="none" xmlns="http://www.w3.org/2000/svg">
<path d="M16.0014 -0.000160217C11.656 -0.000160217 11.1107 0.0188403 9.40398 0.0965078C7.70063 0.174509 6.53795 0.444178 5.5206 0.839849C4.46826 1.24852 3.57558 1.79519 2.68624 2.68487C1.79623 3.57421 1.24956 4.46689 0.839553 5.5189C0.442882 6.53658 0.17288 7.69959 0.0962121 9.40228C0.019878 11.109 -0.00012207 11.6546 -0.00012207 16C-0.00012207 20.3454 0.0192118 20.8891 0.0965459 22.5958C0.17488 24.2991 0.444549 25.4618 0.839887 26.4791C1.24889 27.5315 1.79556 28.4241 2.68524 29.3135C3.57425 30.2035 4.46692 30.7515 5.5186 31.1602C6.53661 31.5558 7.69962 31.8255 9.40264 31.9035C11.1093 31.9812 11.6543 32.0002 15.9994 32.0002C20.3451 32.0002 20.8888 31.9812 22.5954 31.9035C24.2988 31.8255 25.4628 31.5558 26.4808 31.1602C27.5328 30.7515 28.4242 30.2035 29.3132 29.3135C30.2032 28.4241 30.7499 27.5315 31.1599 26.4795C31.5532 25.4618 31.8232 24.2988 31.9032 22.5961C31.9799 20.8894 31.9999 20.3454 31.9999 16C31.9999 11.6546 31.9799 11.1093 31.9032 9.40261C31.8232 7.69926 31.5532 6.53658 31.1599 5.51923C30.7499 4.46689 30.2032 3.57421 29.3132 2.68487C28.4232 1.79486 27.5332 1.24819 26.4798 0.839849C25.4598 0.444178 24.2965 0.174509 22.5931 0.0965078C20.8864 0.0188403 20.3431 -0.000160217 15.9964 -0.000160217H16.0014ZM14.566 2.8832C14.992 2.88254 15.4674 2.8832 16.0014 2.8832C20.2734 2.8832 20.7798 2.89854 22.4668 2.97521C24.0268 3.04654 24.8735 3.30721 25.4375 3.52621C26.1841 3.81621 26.7165 4.16288 27.2762 4.72289C27.8362 5.2829 28.1828 5.81624 28.4735 6.56291C28.6925 7.12625 28.9535 7.97293 29.0245 9.53294C29.1012 11.2196 29.1178 11.7263 29.1178 15.9963C29.1178 20.2664 29.1012 20.7731 29.0245 22.4597C28.9532 24.0198 28.6925 24.8664 28.4735 25.4298C28.1835 26.1765 27.8362 26.7081 27.2762 27.2678C26.7162 27.8278 26.1845 28.1745 25.4375 28.4645C24.8741 28.6845 24.0268 28.9445 22.4668 29.0158C20.7801 29.0925 20.2734 29.1092 16.0014 29.1092C11.729 29.1092 11.2227 29.0925 9.53598 29.0158C7.97596 28.9438 7.12929 28.6832 6.56495 28.4641C5.81827 28.1741 5.28493 27.8275 4.72493 27.2675C4.16492 26.7075 3.81825 26.1755 3.52758 25.4284C3.30858 24.8651 3.04758 24.0184 2.97658 22.4584C2.89991 20.7717 2.88457 20.2651 2.88457 15.9923C2.88457 11.7196 2.89991 11.2156 2.97658 9.52894C3.04791 7.96893 3.30858 7.12225 3.52758 6.55824C3.81758 5.81157 4.16492 5.27823 4.72493 4.71822C5.28493 4.15822 5.81827 3.81155 6.56495 3.52088C7.12895 3.30088 7.97596 3.04087 9.53598 2.96921C11.012 2.90254 11.584 2.88254 14.566 2.8792V2.8832ZM24.5421 5.5399C23.4821 5.5399 22.6221 6.39891 22.6221 7.45925C22.6221 8.51927 23.4821 9.37928 24.5421 9.37928C25.6021 9.37928 26.4622 8.51927 26.4622 7.45925C26.4622 6.39924 25.6021 5.53923 24.5421 5.53923V5.5399ZM16.0014 7.78326C11.4637 7.78326 7.78463 11.4623 7.78463 16C7.78463 20.5377 11.4637 24.2151 16.0014 24.2151C20.5391 24.2151 24.2168 20.5377 24.2168 16C24.2168 11.4623 20.5391 7.78326 16.0014 7.78326ZM16.0014 10.6666C18.9467 10.6666 21.3348 13.0543 21.3348 16C21.3348 18.9454 18.9467 21.3334 16.0014 21.3334C13.0557 21.3334 10.668 18.9454 10.668 16C10.668 13.0543 13.0557 10.6666 16.0014 10.6666Z" fill="white"/>
</svg>
