<svg width="24" height="24" viewBox="0 0 33 33" fill="none" xmlns="http://www.w3.org/2000/svg">
<path d="M30.4096 0.333984C31.6239 0.333984 32.6953 1.40541 32.6953 2.69113V30.0483C32.6953 31.334 31.6239 32.334 30.4096 32.334H2.9096C1.69531 32.334 0.695312 31.334 0.695312 30.0483V2.69113C0.695312 1.40541 1.69531 0.333984 2.9096 0.333984H30.4096ZM10.3382 27.7626V12.5483H5.62388V27.7626H10.3382ZM7.98103 10.4054C9.48103 10.4054 10.6953 9.19113 10.6953 7.69113C10.6953 6.19113 9.48103 4.90541 7.98103 4.90541C6.4096 4.90541 5.19531 6.19113 5.19531 7.69113C5.19531 9.19113 6.4096 10.4054 7.98103 10.4054ZM28.1239 27.7626V19.4054C28.1239 15.334 27.1953 12.1197 22.4096 12.1197C20.1239 12.1197 18.5525 13.4054 17.9096 14.6197H17.8382V12.5483H13.3382V27.7626H18.0525V20.2626C18.0525 18.2626 18.4096 16.334 20.9096 16.334C23.3382 16.334 23.3382 18.6197 23.3382 20.334V27.7626H28.1239Z" fill="white"/>
</svg>
