<svg width="16" height="16" viewBox="0 0 32 23" fill="none" xmlns="http://www.w3.org/2000/svg">
<path d="M31.298 3.90254C32 6.35958 32 11.6247 32 11.6247C32 11.6247 32 16.8312 31.298 19.3468C30.947 20.7508 29.8355 21.8038 28.4899 22.1548C25.9744 22.7983 16.0293 22.7983 16.0293 22.7983C16.0293 22.7983 6.02559 22.7983 3.51006 22.1548C2.16453 21.8038 1.05302 20.7508 0.702011 19.3468C0 16.8312 0 11.6247 0 11.6247C0 11.6247 0 6.35958 0.702011 3.90254C1.05302 2.49852 2.16453 1.387 3.51006 1.036C6.02559 0.333984 16.0293 0.333984 16.0293 0.333984C16.0293 0.333984 25.9744 0.333984 28.4899 1.036C29.8355 1.387 30.947 2.49852 31.298 3.90254ZM12.7532 16.3632L21.0603 11.6247L12.7532 6.88609V16.3632Z" fill="white"/>
</svg>
