<svg width="81" height="80" viewBox="0 0 81 80" fill="none" xmlns="http://www.w3.org/2000/svg">
<path d="M62.2085 27.763C62.2244 27.8216 62.2325 27.882 62.2327 27.9426V37.3718C62.2327 37.4928 62.2006 37.6117 62.1396 37.7164C62.0786 37.8211 61.9908 37.908 61.8853 37.9682L53.927 42.5246V51.5559C53.927 51.8017 53.7957 52.0286 53.5813 52.1523L36.9691 61.6623C36.9311 61.6838 36.8896 61.6975 36.8481 61.7121C36.8326 61.7173 36.8179 61.7267 36.8015 61.731C36.6853 61.7614 36.5633 61.7614 36.4472 61.731C36.4281 61.7259 36.4109 61.7156 36.3927 61.7087C36.3547 61.6949 36.3149 61.6829 36.2786 61.6623L19.6699 52.1523C19.5644 52.0921 19.4767 52.0052 19.4157 51.9005C19.3547 51.7958 19.3226 51.6769 19.3225 51.5559V23.2684C19.3225 23.2066 19.3311 23.1464 19.3467 23.088C19.3519 23.0682 19.364 23.0501 19.3709 23.0304C19.3838 22.9943 19.3959 22.9573 19.4149 22.9238C19.4279 22.9015 19.4469 22.8834 19.4625 22.8628C19.4824 22.8353 19.5005 22.8069 19.5238 22.7829C19.5437 22.7631 19.5696 22.7485 19.5921 22.7313C19.6172 22.7107 19.6396 22.6883 19.6682 22.672H19.669L27.9738 17.917C28.079 17.8569 28.1982 17.8252 28.3195 17.8252C28.4408 17.8252 28.56 17.8569 28.6652 17.917L36.97 22.672H36.9717C36.9994 22.6892 37.0227 22.7107 37.0478 22.7305C37.0702 22.7476 37.0953 22.7631 37.1152 22.782C37.1394 22.8069 37.1566 22.8353 37.1774 22.8628C37.1921 22.8834 37.212 22.9015 37.2241 22.9238C37.2439 22.9582 37.2552 22.9943 37.269 23.0304C37.2759 23.0501 37.288 23.0682 37.2932 23.0888C37.3091 23.1474 37.3172 23.2078 37.3174 23.2684V40.9365L44.2378 36.9739V27.9418C44.2378 27.8816 44.2464 27.8206 44.262 27.763C44.268 27.7424 44.2793 27.7243 44.2862 27.7046C44.3 27.6685 44.3121 27.6315 44.3311 27.598C44.3441 27.5757 44.3631 27.5576 44.3778 27.537C44.3985 27.5095 44.4158 27.4811 44.44 27.4571C44.4599 27.4373 44.4849 27.4227 44.5074 27.4055C44.5333 27.3849 44.5558 27.3625 44.5834 27.3462H44.5843L52.89 22.5912C52.9951 22.531 53.1143 22.4993 53.2357 22.4993C53.357 22.4993 53.4762 22.531 53.5813 22.5912L61.8861 27.3462C61.9155 27.3634 61.938 27.3849 61.9639 27.4046C61.9855 27.4218 62.0106 27.4373 62.0305 27.4562C62.0547 27.4811 62.0719 27.5095 62.0927 27.537C62.1082 27.5576 62.1273 27.5757 62.1394 27.598C62.1592 27.6315 62.1705 27.6685 62.1843 27.7046C62.1921 27.7243 62.2033 27.7424 62.2085 27.763V27.763ZM60.8483 36.9739V29.1329L57.942 30.7966L53.927 33.0955V40.9365L60.8491 36.9739H60.8483ZM52.5434 51.158V43.3118L48.5941 45.5548L37.3165 51.9555V59.8756L52.5434 51.158ZM20.7069 24.4587V51.158L35.9321 59.8748V51.9564L27.9781 47.4799L27.9756 47.4781L27.9721 47.4764C27.9453 47.4609 27.9228 47.4386 27.8978 47.4197C27.8762 47.4025 27.8511 47.3888 27.8321 47.3699L27.8304 47.3673C27.8079 47.3458 27.7923 47.3192 27.7733 47.2951C27.7561 47.2719 27.7353 47.2521 27.7215 47.2281L27.7206 47.2255C27.7051 47.1997 27.6956 47.1688 27.6843 47.1395C27.6731 47.1138 27.6584 47.0897 27.6515 47.0622V47.0613C27.6428 47.0287 27.6411 46.9943 27.6377 46.9608C27.6342 46.935 27.6273 46.9092 27.6273 46.8834V28.4213L23.6132 26.1216L20.7069 24.4595V24.4587ZM28.3204 19.3075L21.4008 23.2684L28.3186 27.2293L35.2373 23.2676L28.3186 19.3075H28.3204ZM31.9188 44.0269L35.933 41.7289V24.4587L33.0267 26.1224L29.0117 28.4213V45.6915L31.9188 44.0269ZM53.2357 23.9817L46.317 27.9426L53.2357 31.9035L60.1535 27.9418L53.2357 23.9817ZM52.5434 33.0955L48.5284 30.7966L45.6222 29.1329V36.9739L49.6363 39.2719L52.5434 40.9365V33.0955ZM36.6234 50.7653L46.7716 45.004L51.8443 42.125L44.9308 38.1667L36.9708 42.724L29.716 46.8774L36.6234 50.7653Z" fill="#FF2D20"/>
</svg>
