<svg width="81" height="80" viewBox="0 0 81 80" fill="none" xmlns="http://www.w3.org/2000/svg">
<path d="M59.2187 51.8195C56.8005 51.7587 54.9263 52.0028 53.3545 52.674C52.901 52.8569 52.1755 52.8571 52.115 53.4369C52.3569 53.6811 52.3871 54.0778 52.5987 54.4133C52.9618 55.0234 53.5962 55.8474 54.1706 56.2748C54.8052 56.7629 55.4403 57.251 56.105 57.6782C57.284 58.4106 58.6142 58.8377 59.7628 59.5701C60.4281 59.9969 61.0927 60.5466 61.7577 61.0042C62.0903 61.2479 62.3017 61.645 62.7251 61.7974V61.706C62.5134 61.4312 62.4529 61.0347 62.2414 60.7295C61.9395 60.4243 61.6368 60.1497 61.3345 59.8445C60.458 58.6547 59.3698 57.6172 58.191 56.7629C57.2237 56.0915 55.1076 55.1762 54.7147 54.0471C54.7147 54.0471 54.6843 54.0167 54.6543 53.9862C55.3192 53.9252 56.105 53.6811 56.74 53.498C57.7677 53.2231 58.7047 53.2843 59.7628 53.0097C60.2464 52.8876 60.7301 52.735 61.2136 52.5825V52.308C60.6698 51.7587 60.2768 51.0265 59.7024 50.5077C58.1607 49.1648 56.4678 47.8529 54.7147 46.7545C53.7776 46.1442 52.5683 45.7474 51.5708 45.2288C51.2084 45.0456 50.6036 44.9542 50.3922 44.649C49.8478 43.9778 49.5455 43.093 49.1527 42.2996C48.2763 40.6212 47.4297 38.76 46.6739 36.9904C46.1301 35.8003 45.7975 34.6101 45.1324 33.5119C42.019 28.3246 38.6334 25.1817 33.4343 22.0997C32.3158 21.4591 30.9858 21.1844 29.5651 20.8489C28.8096 20.8182 28.0537 20.7574 27.2981 20.7267C26.8144 20.513 26.3307 19.9334 25.9074 19.6588C24.1848 18.5602 19.7409 16.1804 18.4714 19.3232C17.6552 21.3065 19.6807 23.2592 20.3756 24.2664C20.8899 24.9681 21.5547 25.7614 21.9174 26.5548C22.129 27.0732 22.1893 27.6229 22.401 28.172C22.8848 29.5142 23.3379 31.0097 23.973 32.2609C24.3055 32.9015 24.6681 33.5727 25.0914 34.1526C25.3332 34.4881 25.7563 34.6408 25.8471 35.1899C25.4241 35.8003 25.3937 36.7158 25.1517 37.4785C24.0635 40.9265 24.4869 45.1983 26.0284 47.7309C26.5119 48.4934 27.6607 50.1722 29.2023 49.5312C30.5627 48.982 30.2604 47.2428 30.6531 45.7171C30.7441 45.3506 30.6836 45.1068 30.8648 44.8626V44.9239C31.2881 45.778 31.7111 46.6021 32.1042 47.4564C33.0413 48.9513 34.6735 50.5077 36.0337 51.5452C36.7594 52.0942 37.3336 53.0402 38.2406 53.3759V53.2842H38.1799C37.9986 53.0095 37.7265 52.8876 37.4848 52.6738C36.9408 52.1249 36.336 51.4535 35.9129 50.8432C34.6436 49.1343 33.5249 47.2426 32.5274 45.2897C32.0439 44.344 31.6205 43.3065 31.2276 42.3606C31.0461 41.9941 31.0461 41.4451 30.7439 41.2622C30.2905 41.9334 29.6255 42.5132 29.293 43.337C28.7189 44.649 28.6583 46.2662 28.4467 47.9443C28.3258 47.9752 28.3861 47.9443 28.3256 48.0057C27.3585 47.7612 27.026 46.7545 26.663 45.9C25.7561 43.7337 25.6049 40.2552 26.3911 37.7532C26.6028 37.1123 27.5097 35.0986 27.1469 34.4882C26.9655 33.9084 26.3607 33.5727 26.0284 33.1152C25.6355 32.5353 25.2121 31.8033 24.9402 31.1623C24.2147 29.4535 23.8519 27.5617 23.066 25.8529C22.7033 25.0595 22.0688 24.2359 21.5547 23.5035C20.9804 22.6797 20.3456 22.0997 19.8921 21.1234C19.7411 20.7879 19.5293 20.2386 19.7712 19.8724C19.8316 19.6282 19.9524 19.5369 20.1944 19.4758C20.5874 19.14 21.706 19.5672 22.0986 19.7503C23.2172 20.2077 24.1542 20.6353 25.0914 21.276C25.5144 21.5811 25.9679 22.1609 26.5119 22.3135H27.1467C28.1141 22.527 29.2021 22.3746 30.1091 22.649C31.7113 23.1676 33.1621 23.9306 34.462 24.7545C38.422 27.287 41.6863 30.8876 43.8931 35.1899C44.2559 35.8915 44.4069 36.5327 44.7394 37.2647C45.3745 38.76 46.1603 40.2857 46.7948 41.7503C47.4297 43.1842 48.0341 44.649 48.9411 45.8392C49.3945 46.4797 51.2081 46.8155 52.0243 47.1512C52.6289 47.4257 53.5661 47.67 54.1101 48.0055C55.1378 48.646 56.1655 49.3787 57.1329 50.0803C57.6166 50.4465 59.1278 51.2094 59.2187 51.8195V51.8195Z" fill="#00546B"/>
<path d="M28.3859 25.3035C27.8721 25.3035 27.5095 25.3648 27.1468 25.4562V25.5172H27.2072C27.4492 26.0055 27.8721 26.3412 28.1743 26.7682C28.4163 27.2563 28.6277 27.7448 28.8698 28.233C28.8998 28.2024 28.9301 28.172 28.9301 28.172C29.3535 27.8667 29.5649 27.3786 29.5649 26.6462C29.3835 26.4327 29.3533 26.2191 29.2021 26.0055C29.0209 25.7002 28.6277 25.5478 28.3859 25.3035V25.3035Z" fill="#00546B"/>
</svg>
