<svg width="80" height="80" viewBox="0 0 80 80" fill="none" xmlns="http://www.w3.org/2000/svg">
<path d="M38.1803 18.2519C39.2823 17.6211 40.7177 17.6183 41.8188 18.2519C47.3581 21.382 52.8992 24.5071 58.4377 27.639C59.4794 28.2258 60.1762 29.3851 60.1656 30.5854V49.4169C60.1733 50.667 59.4077 51.854 58.3087 52.4275C52.7875 55.5403 47.2692 58.6568 41.7489 61.7696C40.6241 62.4127 39.1599 62.3632 38.0703 61.6674C36.415 60.7078 34.7569 59.753 33.1015 58.7944C32.7633 58.5927 32.382 58.4322 32.1431 58.1042C32.3543 57.8196 32.7318 57.7842 33.0385 57.6599C33.7295 57.4402 34.3641 57.0875 34.9988 56.7453C35.1593 56.6355 35.3553 56.6776 35.5091 56.7759C36.9246 57.5874 38.3275 58.4226 39.7477 59.2264C40.0506 59.4013 40.3574 59.1691 40.6164 59.0247C46.0343 55.9626 51.459 52.912 56.876 49.8489C57.0767 49.7524 57.1877 49.5393 57.1713 49.3194C57.1751 43.1073 57.1723 36.8941 57.1732 30.682C57.1962 30.4325 57.0518 30.2032 56.8263 30.1011C51.3243 27.0025 45.8251 23.8993 40.324 20.7999C40.2287 20.7344 40.1158 20.6993 40.0001 20.6991C39.8845 20.6989 39.7715 20.7337 39.676 20.799C34.1749 23.8993 28.6767 27.0054 23.1756 30.1038C22.9508 30.206 22.8 30.4316 22.8267 30.682C22.8277 36.8941 22.8267 43.1073 22.8267 49.3204C22.8172 49.4277 22.8408 49.5353 22.8943 49.6288C22.9477 49.7222 23.0286 49.7971 23.1259 49.8432C24.5939 50.6757 26.0638 51.5023 27.5327 52.3319C28.3603 52.7773 29.3763 53.042 30.2881 52.7007C31.0927 52.4121 31.6567 51.5911 31.6413 50.7368C31.6489 44.5609 31.6375 38.3841 31.647 32.2092C31.6269 31.935 31.887 31.7085 32.1535 31.7343C32.8589 31.7296 33.5652 31.7248 34.2705 31.7362C34.5649 31.7296 34.7675 32.0248 34.7311 32.301C34.7283 38.516 34.7387 44.7311 34.7264 50.946C34.7283 52.6024 34.0478 54.4047 32.5157 55.2151C30.6283 56.1929 28.2954 55.9855 26.4307 55.048C24.8165 54.2423 23.276 53.2914 21.6904 52.4283C20.5885 51.8579 19.8267 50.6662 19.8344 49.4171V30.5854C19.8229 29.3603 20.5474 28.1799 21.6215 27.6017C27.1417 24.4864 32.661 21.3687 38.1803 18.2519Z" fill="#8CC84B"/>
<path d="M42.9961 31.2966C45.4037 31.1416 47.9811 31.2048 50.1476 32.3909C51.8251 33.2998 52.755 35.2073 52.7846 37.0709C52.7378 37.3223 52.475 37.4609 52.235 37.4437C51.5365 37.4427 50.8378 37.4532 50.1393 37.4389C49.8429 37.4503 49.6707 37.1771 49.6335 36.9151C49.4328 36.0235 48.9465 35.1404 48.1073 34.7103C46.819 34.0653 45.3252 34.0977 43.9203 34.1112C42.8948 34.1656 41.792 34.2544 40.9231 34.8575C40.2561 35.3143 40.0535 36.2365 40.2915 36.9792C40.516 37.5125 41.1316 37.6846 41.6353 37.8432C44.5367 38.602 47.6114 38.5265 50.4574 39.5252C51.6357 39.9323 52.7884 40.7238 53.1917 41.9575C53.7193 43.611 53.4881 45.5874 52.3116 46.9148C51.3576 48.0072 49.9681 48.6017 48.5823 48.9246C46.7387 49.3357 44.8254 49.3462 42.9532 49.1636C41.1927 48.9629 39.3606 48.5004 38.0015 47.3009C36.8394 46.2918 36.2717 44.7195 36.3281 43.202C36.3416 42.9457 36.5967 42.767 36.8422 42.788C37.5457 42.7823 38.2491 42.7804 38.9526 42.789C39.2335 42.7689 39.4418 43.0117 39.4562 43.2765C39.586 44.1261 39.9053 45.0177 40.6461 45.5214C42.0758 46.4437 43.8697 46.3806 45.5067 46.4064C46.863 46.3462 48.3854 46.328 49.4922 45.4316C50.0761 44.9204 50.2491 44.065 50.0913 43.3291C49.9203 42.7078 49.2704 42.4183 48.7123 42.2289C45.848 41.3229 42.739 41.6517 39.9025 40.627C38.7509 40.2201 37.6373 39.4506 37.1949 38.2676C36.5776 36.5932 36.8604 34.5221 38.1602 33.2395C39.4274 31.9636 41.2568 31.4723 42.9961 31.2965V31.2966Z" fill="#8CC84B"/>
</svg>
