<svg width="81" height="80" viewBox="0 0 81 80" fill="none" xmlns="http://www.w3.org/2000/svg">
<path d="M62.1971 44.1543C61.9387 43.3739 61.2618 42.8304 60.3865 42.6999C59.9737 42.6385 59.501 42.6647 58.9417 42.7797C57.9667 42.9803 57.2433 43.0567 56.7155 43.0714C58.708 39.7167 60.3282 35.8912 61.261 32.2901C62.7692 26.4671 61.9632 23.8144 61.0214 22.6146C58.5289 19.4386 54.8924 17.7325 50.5053 17.6803C48.165 17.6517 46.1105 18.1125 45.0387 18.4439C44.0408 18.2683 42.9679 18.1703 41.842 18.1521C39.7317 18.1186 37.867 18.5773 36.2738 19.5202C35.3917 19.2228 33.976 18.8034 32.3412 18.5359C28.4961 17.9064 25.3971 18.3969 23.1303 19.9937C20.3855 21.9272 19.113 25.2864 19.3484 29.9781C19.4231 31.4677 20.2587 35.9999 21.5744 40.2982C22.3306 42.7688 23.1369 44.8204 23.971 46.3966C25.1538 48.6316 26.4195 49.9478 27.8404 50.4205C28.6368 50.6851 30.0838 50.8704 31.6057 49.6064C31.7986 49.8394 32.056 50.0709 32.3976 50.2859C32.8313 50.5587 33.3618 50.7816 33.8915 50.9137C35.8006 51.3896 37.5888 51.2706 39.1144 50.6035C39.1238 50.8741 39.131 51.1326 39.1371 51.3559C39.1472 51.7179 39.1573 52.073 39.1706 52.405C39.261 54.65 39.4142 56.3956 39.868 57.6169C39.8929 57.6841 39.9264 57.7864 39.9618 57.8951C40.1882 58.5863 40.5668 59.7435 41.53 60.6498C42.5273 61.5887 43.7338 61.8765 44.8387 61.8765C45.3929 61.8765 45.9216 61.804 46.3854 61.705C48.0384 61.3516 49.9158 60.8135 51.2739 58.8851C52.558 57.0621 53.1821 54.3164 53.2951 49.9901C53.3097 49.8678 53.3232 49.7509 53.3362 49.6397L53.3631 49.411L53.6656 49.4375L53.7435 49.4428C55.4272 49.5193 57.4859 49.1633 58.7503 48.5776C59.7493 48.1153 62.9509 46.4298 62.1971 44.1543" fill="black"/>
<path d="M59.3183 44.5968C54.312 45.6266 53.9678 43.9364 53.9678 43.9364C59.2535 36.1153 61.4632 26.1875 59.5565 23.7577C54.3543 17.1297 45.3493 20.2643 45.199 20.3456L45.1507 20.3543C44.1615 20.1495 43.0548 20.0276 41.8106 20.0073C39.5455 19.9704 37.8272 20.5995 36.5233 21.5856C36.5233 21.5856 20.4592 14.9863 21.2064 29.8853C21.3653 33.0548 25.7622 53.8681 31.0065 47.5815C32.9233 45.2827 34.7754 43.339 34.7754 43.339C35.6952 43.9484 36.7965 44.2592 37.9509 44.1476L38.0406 44.0717C38.0127 44.3571 38.0255 44.6363 38.0765 44.9668C36.7254 46.472 37.1225 46.7362 34.4218 47.2906C31.6889 47.8523 33.2943 48.8521 34.3425 49.1136C35.6132 49.4304 38.553 49.8792 40.5393 47.1063L40.4602 47.4227C40.9895 47.8456 41.3612 50.1728 41.2989 52.2827C41.2366 54.3923 41.195 55.8408 41.612 56.9722C42.0293 58.1036 42.4449 60.6492 45.9954 59.8906C48.9619 59.2566 50.4993 57.6138 50.7132 54.8733C50.8649 52.9251 51.2085 53.2131 51.23 51.4712L51.5056 50.6467C51.8232 48.0057 51.5561 47.1537 53.3837 47.55L53.8281 47.5889C55.1731 47.6499 56.9338 47.3731 57.9672 46.8942C60.1923 45.8645 61.512 44.1451 59.3179 44.5968H59.3183" fill="#336791"/>
<path d="M37.4636 31.3027C37.0124 31.2401 36.6039 31.298 36.3972 31.4541C36.281 31.5419 36.245 31.6436 36.2352 31.7136C36.2093 31.8991 36.3396 32.1042 36.4197 32.21C36.6463 32.5095 36.9772 32.7153 37.3048 32.7606C37.3523 32.7673 37.3996 32.7703 37.4466 32.7703C37.9928 32.7703 38.4895 32.3461 38.5333 32.0331C38.588 31.6409 38.0172 31.3796 37.4636 31.3029V31.3027ZM52.4089 31.3151C52.3658 31.0078 51.8173 30.9202 51.2969 30.9923C50.777 31.0645 50.273 31.2985 50.3151 31.6065C50.3488 31.8461 50.7826 32.255 51.296 32.255C51.3394 32.255 51.3832 32.2521 51.4273 32.2459C51.77 32.1986 52.0215 31.9815 52.141 31.8565C52.3228 31.6658 52.4282 31.4533 52.4089 31.3151" fill="white"/>
<path d="M60.9842 44.4798C60.7933 43.9042 60.1788 43.7191 59.1581 43.9293C56.1272 44.553 55.0418 44.121 54.6854 43.8593C57.0413 40.2805 58.9793 35.9543 60.0248 31.9181C60.5201 30.0062 60.7936 28.2305 60.816 26.7832C60.8407 25.1948 60.5694 24.0275 60.0098 23.3144C57.7538 20.4398 54.4427 18.8978 50.4347 18.8555C47.6792 18.8246 45.3512 19.5278 44.8999 19.7255C43.9495 19.4898 42.9134 19.3451 41.7854 19.3267C39.7169 19.2933 37.9289 19.7871 36.4485 20.7938C35.8055 20.5551 34.1437 19.9862 32.1114 19.6597C28.598 19.0957 25.806 19.5231 23.8136 20.9306C21.4362 22.6102 20.3387 25.6126 20.5513 29.8541C20.6228 31.2811 21.4382 35.671 22.725 39.8751C24.4187 45.4084 26.26 48.5409 28.1972 49.1853C28.4239 49.2607 28.6853 49.3134 28.9737 49.3134C29.6803 49.3134 30.5468 48.9958 31.4482 47.9151C32.5477 46.5999 33.685 45.3165 34.8588 44.0667C35.6203 44.4743 36.4569 44.7019 37.3126 44.7247C37.3143 44.7471 37.3165 44.7694 37.3185 44.7916C37.1712 44.9667 37.027 45.1444 36.8859 45.3245C36.293 46.075 36.1696 46.2313 34.2612 46.6231C33.7183 46.7349 32.2766 47.0312 32.2553 48.039C32.2325 49.1402 33.9597 49.6026 34.1565 49.6516C34.8423 49.8229 35.503 49.9073 36.1331 49.9073C37.6654 49.9073 39.0139 49.4051 40.0916 48.4333C40.0584 52.3589 40.2226 56.2271 40.6952 57.4057C41.0824 58.3705 42.0281 60.7285 45.0154 60.7283C45.4537 60.7283 45.9361 60.6774 46.4669 60.564C49.5846 59.8976 50.9385 58.5234 51.4622 55.4941C51.7425 53.875 52.2234 50.009 52.4496 47.9353C52.927 48.0838 53.5416 48.1518 54.206 48.1516C55.5918 48.1516 57.1908 47.858 58.1935 47.3939C59.32 46.8722 61.3528 45.5921 60.9842 44.4798V44.4798ZM53.5596 30.4668C53.5494 31.079 53.4649 31.6348 53.3753 32.2149C53.2789 32.8388 53.1792 33.4839 53.1541 34.267C53.1294 35.0291 53.2248 35.8214 53.3171 36.5877C53.5036 38.1354 53.695 39.7287 52.9541 41.3009C52.8311 41.0834 52.7215 40.8587 52.6259 40.6279C52.5338 40.4053 52.3338 40.0478 52.0569 39.5529C50.9798 37.6266 48.4573 33.1155 49.7486 31.2747C50.1332 30.7268 51.1094 30.1635 53.5596 30.4668V30.4668ZM50.5896 20.0951C54.1808 20.1742 57.0216 21.5139 59.0328 24.0768C60.5754 26.0426 58.8768 34.9875 53.9593 42.7042C53.9098 42.6415 53.8601 42.579 53.8101 42.5167L53.7478 42.4391C55.0186 40.3464 54.7701 38.2759 54.5489 36.4401C54.458 35.6868 54.3722 34.9752 54.3941 34.3068C54.4166 33.5984 54.5105 32.9907 54.6014 32.4032C54.7131 31.6792 54.8267 30.9301 54.7954 30.047C54.8188 29.9543 54.8282 29.8449 54.8159 29.7149C54.7359 28.8681 53.7663 26.3335 51.7901 24.0395C50.7091 22.7848 49.1326 21.3806 46.9801 20.4335C47.906 20.2422 49.172 20.0637 50.5896 20.0951V20.0951ZM30.4942 47.1242C29.5011 48.315 28.8153 48.0867 28.5897 48.0118C27.1202 47.523 25.4149 44.4256 23.9116 39.514C22.6107 35.2641 21.8505 30.9905 21.7902 29.7921C21.6003 26.0022 22.5216 23.3609 24.5287 21.9414C27.795 19.6317 33.1652 21.0142 35.3231 21.7153C35.2921 21.7459 35.2598 21.7744 35.2291 21.8055C31.6881 25.3715 31.7721 31.4642 31.7808 31.8367C31.7805 31.9804 31.7926 32.1838 31.8091 32.4637C31.87 33.4885 31.9835 35.3957 31.6805 37.5556C31.399 39.5627 32.0195 41.5272 33.3825 42.9454C33.5224 43.0907 33.6694 43.229 33.823 43.3597C33.2164 44.0076 31.8978 45.4405 30.4942 47.1242V47.1242ZM34.2782 42.0895C33.1797 40.9464 32.6807 39.3564 32.9092 37.7268C33.229 35.4452 33.111 33.4581 33.0475 32.3905C33.0386 32.2411 33.0307 32.1101 33.0261 32.0069C33.5434 31.5495 35.9407 30.2687 37.6503 30.6593C38.4303 30.8374 38.9057 31.3672 39.1033 32.2783C40.1261 36.9957 39.2387 38.9619 38.5256 40.542C38.3786 40.8675 38.2398 41.1752 38.1213 41.4934L38.0294 41.7395C37.7967 42.3616 37.5802 42.94 37.4461 43.4893C36.2782 43.4859 35.1421 42.9884 34.2782 42.0893V42.0895ZM34.4575 48.4514C34.1164 48.3665 33.8097 48.2189 33.6298 48.0966C33.7801 48.0261 34.0476 47.9301 34.5115 47.8347C36.7566 47.3739 37.1033 47.0486 37.8605 46.09C38.0341 45.8701 38.2308 45.621 38.5034 45.3175L38.5037 45.3171C38.9096 44.8639 39.0952 44.9408 39.4319 45.0801C39.7048 45.1926 39.9706 45.5337 40.0783 45.909C40.1293 46.0863 40.1865 46.4227 39.9992 46.6845C38.4175 48.8929 36.1127 48.8645 34.4575 48.4514V48.4514ZM46.207 59.3544C43.4605 59.9412 42.488 58.5438 41.8472 56.9462C41.4336 55.9149 41.2302 51.2641 41.3745 46.1281C41.3763 46.0597 41.3666 45.9938 41.3477 45.9317C41.3308 45.809 41.3052 45.6877 41.271 45.5688C41.0565 44.8214 40.5338 44.1963 39.9068 43.9371C39.6576 43.8342 39.2004 43.6454 38.651 43.7856C38.7682 43.3041 38.9713 42.7604 39.1917 42.1717L39.2841 41.9242C39.3881 41.645 39.5188 41.3558 39.6568 41.0496C40.403 39.3965 41.425 37.1322 40.3158 32.017C39.9004 30.101 38.513 29.1654 36.4098 29.3827C35.149 29.5128 33.9954 30.0201 33.42 30.311C33.2963 30.3734 33.1832 30.4339 33.0775 30.4926C33.2381 28.5622 33.8447 24.9546 36.1142 22.672C37.5432 21.2351 39.4462 20.5254 41.7648 20.5636C46.3334 20.6382 49.2631 22.9761 50.9165 24.9245C52.3412 26.6033 53.1127 28.2945 53.4206 29.2066C51.1052 28.9718 49.5304 29.4275 48.7322 30.5656C46.9955 33.0413 49.6822 37.8461 50.9735 40.1554C51.2104 40.5786 51.4147 40.9443 51.479 41.0998C51.8995 42.116 52.4439 42.7945 52.8414 43.2897C52.9632 43.4414 53.0814 43.5887 53.1713 43.7172C52.47 43.9188 51.2104 44.3847 51.3252 46.7131C51.2326 47.8814 50.5742 53.3513 50.2398 55.2839C49.7982 57.8371 48.8561 58.788 46.207 59.3545V59.3544ZM57.6712 46.2719C56.9541 46.6038 55.754 46.8527 54.6141 46.9063C53.3549 46.965 52.7139 46.7656 52.5631 46.6429C52.4924 45.1919 53.0339 45.0403 53.6071 44.8799C53.6972 44.8547 53.785 44.83 53.8699 44.8005C53.9226 44.8433 53.9803 44.8857 54.0436 44.9274C55.0556 45.5934 56.8607 45.6653 59.4091 45.1407L59.437 45.1352C59.0933 45.4556 58.5051 45.8857 57.6712 46.2719Z" fill="white"/>
</svg>
