<svg width="81" height="80" viewBox="0 0 81 80" fill="none" xmlns="http://www.w3.org/2000/svg">
<path d="M40.2515 43.6744C42.4155 43.6744 44.1698 41.9298 44.1698 39.7778C44.1698 37.6258 42.4155 35.8813 40.2515 35.8813C38.0874 35.8813 36.3331 37.6258 36.3331 39.7778C36.3331 41.9298 38.0874 43.6744 40.2515 43.6744Z" fill="#61DAFB"/>
<path fill-rule="evenodd" clip-rule="evenodd" d="M21.8276 37.7275C20.939 38.5252 20.6469 39.2207 20.6469 39.7778C20.6469 40.3349 20.939 41.0304 21.8276 41.8281C22.7155 42.6252 24.0806 43.4081 25.8887 44.0946C29.4949 45.4639 34.5725 46.3403 40.2515 46.3403C45.9304 46.3403 51.0081 45.4639 54.6142 44.0946C56.4223 43.4081 57.7874 42.6252 58.6754 41.8281C59.5639 41.0304 59.856 40.3349 59.856 39.7778C59.856 39.2207 59.5639 38.5252 58.6754 37.7275C57.7874 36.9304 56.4223 36.1475 54.6142 35.4609C51.0081 34.0917 45.9304 33.2152 40.2515 33.2152C34.5725 33.2152 29.4949 34.0917 25.8887 35.4609C24.0806 36.1475 22.7155 36.9304 21.8276 37.7275ZM24.8801 32.8047C28.8836 31.2846 34.3186 30.374 40.2515 30.374C46.1844 30.374 51.6193 31.2846 55.6228 32.8047C57.6195 33.5629 59.3335 34.5002 60.5734 35.6132C61.8127 36.7257 62.6973 38.1304 62.6973 39.7778C62.6973 41.4252 61.8127 42.8298 60.5734 43.9424C59.3335 45.0554 57.6195 45.9927 55.6228 46.7509C51.6193 48.271 46.1844 49.1816 40.2515 49.1816C34.3186 49.1816 28.8836 48.271 24.8801 46.7509C22.8834 45.9927 21.1694 45.0554 19.9295 43.9424C18.6903 42.8298 17.8057 41.4252 17.8057 39.7778C17.8057 38.1304 18.6903 36.7257 19.9295 35.6132C21.1694 34.5002 22.8834 33.5629 24.8801 32.8047Z" fill="#61DAFB"/>
<path fill-rule="evenodd" clip-rule="evenodd" d="M32.8364 22.8888C31.6989 22.5228 30.9433 22.6172 30.4521 22.8992C29.9609 23.1812 29.501 23.7848 29.2509 24.9474C29.0008 26.1101 29.0015 27.6761 29.3075 29.5753C29.9178 33.3635 31.6925 38.1727 34.5312 43.062C37.3698 47.9514 40.6706 51.8844 43.6645 54.3041C45.1654 55.5172 46.5288 56.3008 47.6664 56.6668C48.8039 57.0327 49.5595 56.9384 50.0507 56.6564C50.5419 56.3743 51.0019 55.7708 51.252 54.6082C51.502 53.4455 51.5013 51.8795 51.1953 49.9803C50.585 46.1921 48.8103 41.3829 45.9717 36.4935C43.1331 31.6042 39.8322 27.6712 36.8384 25.2515C35.3374 24.0384 33.974 23.2547 32.8364 22.8888ZM38.6294 23.0517C41.9566 25.7408 45.4684 29.9679 48.4357 35.0788C51.403 40.1898 53.3283 45.3277 54.0065 49.5377C54.3449 51.6376 54.3856 53.5834 54.0361 55.2084C53.6865 56.8334 52.9059 58.2933 51.4773 59.1135C50.0487 59.9338 48.387 59.8761 46.7971 59.3646C45.2072 58.8531 43.533 57.8452 41.8734 56.5038C38.5462 53.8147 35.0345 49.5877 32.0671 44.4767C29.0998 39.3657 27.1746 34.2278 26.4963 30.0178C26.158 27.9179 26.1173 25.9721 26.4668 24.3472C26.8163 22.7221 27.5969 21.2623 29.0256 20.442C30.4542 19.6218 32.1158 19.6794 33.7058 20.1909C35.2956 20.7024 36.9698 21.7104 38.6294 23.0517Z" fill="#61DAFB"/>
<path fill-rule="evenodd" clip-rule="evenodd" d="M51.252 24.9474C51.0019 23.7848 50.542 23.1812 50.0508 22.8992C49.5596 22.6172 48.804 22.5228 47.6665 22.8888C46.5289 23.2547 45.1654 24.0384 43.6645 25.2515C40.6707 27.6712 37.3698 31.6042 34.5312 36.4935C31.6926 41.3829 29.9179 46.1921 29.3076 49.9803C29.0016 51.8795 29.0009 53.4455 29.2509 54.6082C29.501 55.7708 29.961 56.3743 30.4522 56.6563C30.9434 56.9384 31.699 57.0327 32.8365 56.6668C33.9741 56.3008 35.3375 55.5172 36.8384 54.3041C39.8323 51.8844 43.1331 47.9513 45.9717 43.062C48.8104 38.1727 50.5851 33.3635 51.1954 29.5753C51.5013 27.6761 51.5021 26.1101 51.252 24.9474ZM54.0066 30.0178C53.3283 34.2278 51.4031 39.3657 48.4358 44.4767C45.4684 49.5877 41.9567 53.8147 38.6295 56.5038C36.9699 57.8452 35.2957 58.8531 33.7058 59.3646C32.1159 59.8761 30.4542 59.9338 29.0256 59.1135C27.597 58.2933 26.8163 56.8334 26.4668 55.2084C26.1173 53.5834 26.158 51.6376 26.4963 49.5377C27.1746 45.3277 29.0999 40.1898 32.0672 35.0788C35.0345 29.9678 38.5463 25.7408 41.8735 23.0517C43.5331 21.7104 45.2073 20.7024 46.7971 20.1909C48.387 19.6794 50.0487 19.6218 51.4773 20.442C52.906 21.2622 53.6866 22.7221 54.0361 24.3471C54.3856 25.9721 54.3449 27.9179 54.0066 30.0178Z" fill="#61DAFB"/>
</svg>
