<svg width="80" height="80" viewBox="0 0 80 80" fill="none" xmlns="http://www.w3.org/2000/svg">
<path d="M58.9765 20.5628C58.33 22.1203 57.4939 23.5011 56.5687 24.7383C52.4889 20.618 46.7816 18 40.4836 18C28.1104 18 18 27.9638 18 40.2695C18 46.6985 20.7756 52.4868 25.1787 56.5739L26.0147 57.314C29.905 60.5727 34.9658 62.55 40.4724 62.55C52.2883 62.55 62.0196 53.4147 62.8556 41.8822C63.5245 36.2817 61.8078 29.1126 58.9765 20.5628ZM28.4336 56.7617C27.7871 57.5902 26.5832 57.6786 25.7472 57.0379C24.9112 56.3972 24.822 55.2042 25.4685 54.3757C26.115 53.5472 27.3189 53.4588 28.1549 54.0995C28.9464 54.7402 29.0801 55.9332 28.4336 56.7617ZM58.8427 50.1007C53.3249 57.4024 41.4645 54.928 33.9068 55.2925C33.9068 55.2925 32.558 55.3809 31.2204 55.5687C31.2204 55.5687 31.7331 55.3367 32.3797 55.1047C37.7079 53.2711 40.216 52.8955 43.4598 51.2496C49.5349 48.1676 55.5989 41.4183 56.814 34.437C54.4954 41.1421 47.4505 46.9304 41.0521 49.2723C36.649 50.885 28.7234 52.4426 28.7234 52.4426L28.4002 52.2548C23.0273 49.6368 22.8378 38.0602 32.6695 34.3376C36.9834 32.6806 41.0632 33.5975 45.745 32.5039C50.7054 31.3551 56.4573 27.6766 58.7647 22.8604C61.3396 30.626 64.4943 42.6555 58.8427 50.1007Z" fill="#6CB52D"/>
<path d="M28.4336 56.7617C27.7871 57.5902 26.5832 57.6786 25.7472 57.0379C24.9112 56.3972 24.822 55.2042 25.4685 54.3757C26.115 53.5472 27.3189 53.4588 28.1549 54.0995C28.9464 54.7402 29.0802 55.9332 28.4336 56.7617Z" fill="#6CB52D"/>
</svg>
