<svg width="24" height="24" viewBox="0 0 24 24" fill="none" xmlns="http://www.w3.org/2000/svg">
<path fill-rule="evenodd" clip-rule="evenodd" d="M4.96189 8.77613C4.66248 9.05337 4.42615 9.38545 4.2627 9.75H4C3.0335 9.75 2.25 10.5335 2.25 11.5V12.0198C2.25 12.6263 2.4505 13.2157 2.82028 13.6965L3.07909 14.0329C3.21275 14.2067 3.29837 14.4125 3.32734 14.6298L4.02516 19.8635C4.20732 21.2297 5.37273 22.25 6.75103 22.25H17.249C18.6273 22.25 19.7927 21.2297 19.9748 19.8634L20.6727 14.6298C20.7016 14.4125 20.7872 14.2067 20.9209 14.0329L21.1797 13.6965C21.5495 13.2157 21.75 12.6263 21.75 12.0198V11.5C21.75 10.5335 20.9665 9.75 20 9.75H19.9379C19.6288 7.90754 18.2001 6.44472 16.3753 6.08505C16.5097 5.88309 16.7393 5.75 17.0001 5.75C17.4143 5.75 17.7501 5.41421 17.7501 5C17.7501 4.58579 17.4143 4.25 17.0001 4.25C15.9098 4.25 15.0006 5.02553 14.7941 6.05506C13.1881 6.30814 11.8643 7.41077 11.2973 8.88838C11.2753 8.86224 11.2529 8.83644 11.23 8.81098L10.7702 8.30013C10.2744 7.74926 10.0001 7.03436 10.0001 6.29324V3C10.0001 2.44772 9.5524 2 9.00011 2H7.40011C6.84783 2 6.40011 2.44772 6.40011 3L6.40001 6.15793C6.39334 6.9848 6.0456 7.77269 5.43834 8.33498L4.96189 8.77613ZM18.4056 9.75C18.0726 8.45608 16.898 7.5 15.5001 7.5C14.1022 7.5 12.9277 8.45608 12.5946 9.75H18.4056ZM10.0571 9.75L9.65529 9.30358C9.01408 8.59113 8.61982 7.69577 8.52334 6.75H7.85773C7.7162 7.77383 7.22504 8.72488 6.45745 9.43562L6.11792 9.75H10.0571ZM8.50011 5.25V3.5H7.90011V5.25H8.50011ZM3.75 11.5C3.75 11.3619 3.86193 11.25 4 11.25H20C20.1381 11.25 20.25 11.3619 20.25 11.5V12.0198C20.25 12.2954 20.1589 12.5634 19.9908 12.7819L19.732 13.1183C19.4379 13.5006 19.2496 13.9535 19.1858 14.4316L18.488 19.6652C18.4052 20.2862 17.8755 20.75 17.249 20.75H6.75103C6.12453 20.75 5.5948 20.2862 5.512 19.6652L4.81418 14.4316C4.75044 13.9535 4.56209 13.5006 4.26802 13.1183L4.00922 12.7819C3.84113 12.5634 3.75 12.2954 3.75 12.0198V11.5Z" fill="#0285F4"/>
</svg>
