<svg width="24" height="24" viewBox="0 0 24 24" fill="none" xmlns="http://www.w3.org/2000/svg">
<path fill-rule="evenodd" clip-rule="evenodd" d="M7 9C7 7.89543 7.89543 7 9 7H15C16.1046 7 17 7.89543 17 9V15C17 16.1046 16.1046 17 15 17H9C7.89543 17 7 16.1046 7 15V9ZM8.5 9C8.5 8.72386 8.72386 8.5 9 8.5H15C15.2761 8.5 15.5 8.72386 15.5 9V15C15.5 15.2761 15.2761 15.5 15 15.5H9C8.72386 15.5 8.5 15.2761 8.5 15V9Z" fill="#0285F4"/>
<path fill-rule="evenodd" clip-rule="evenodd" d="M8 2.25C8.41421 2.25 8.75 2.58579 8.75 3V4H9.75V3C9.75 2.58579 10.0858 2.25 10.5 2.25C10.9142 2.25 11.25 2.58579 11.25 3V4H12.75V3C12.75 2.58579 13.0858 2.25 13.5 2.25C13.9142 2.25 14.25 2.58579 14.25 3V4H15.25V3C15.25 2.58579 15.5858 2.25 16 2.25C16.4142 2.25 16.75 2.58579 16.75 3V4.0702C18.3577 4.37517 19.6248 5.64229 19.9298 7.25H21C21.4142 7.25 21.75 7.58579 21.75 8C21.75 8.41421 21.4142 8.75 21 8.75H20V9.75H21C21.4142 9.75 21.75 10.0858 21.75 10.5C21.75 10.9142 21.4142 11.25 21 11.25H20V12.75H21C21.4142 12.75 21.75 13.0858 21.75 13.5C21.75 13.9142 21.4142 14.25 21 14.25H20V15.25H21C21.4142 15.25 21.75 15.5858 21.75 16C21.75 16.4142 21.4142 16.75 21 16.75H19.9298C19.6248 18.3577 18.3577 19.6248 16.75 19.9298V21C16.75 21.4142 16.4142 21.75 16 21.75C15.5858 21.75 15.25 21.4142 15.25 21V20H14.25V21C14.25 21.4142 13.9142 21.75 13.5 21.75C13.0858 21.75 12.75 21.4142 12.75 21V20H11.25V21C11.25 21.4142 10.9142 21.75 10.5 21.75C10.0858 21.75 9.75 21.4142 9.75 21V20H8.75V21C8.75 21.4142 8.41421 21.75 8 21.75C7.58579 21.75 7.25 21.4142 7.25 21V19.9298C5.64229 19.6248 4.37517 18.3577 4.0702 16.75H3C2.58579 16.75 2.25 16.4142 2.25 16C2.25 15.5858 2.58579 15.25 3 15.25H4V14.25H3C2.58579 14.25 2.25 13.9142 2.25 13.5C2.25 13.0858 2.58579 12.75 3 12.75H4V11.25H3C2.58579 11.25 2.25 10.9142 2.25 10.5C2.25 10.0858 2.58579 9.75 3 9.75H4V8.75H3C2.58579 8.75 2.25 8.41421 2.25 8C2.25 7.58579 2.58579 7.25 3 7.25H4.0702C4.37517 5.64229 5.64229 4.37517 7.25 4.0702V3C7.25 2.58579 7.58579 2.25 8 2.25ZM5.5 8C5.5 6.61929 6.61929 5.5 8 5.5H16C17.3807 5.5 18.5 6.61929 18.5 8V16C18.5 17.3807 17.3807 18.5 16 18.5H8C6.61929 18.5 5.5 17.3807 5.5 16V8Z" fill="#0285F4"/>
</svg>
