<svg width="24" height="24" viewBox="0 0 24 24" fill="none" xmlns="http://www.w3.org/2000/svg">
<path fill-rule="evenodd" clip-rule="evenodd" d="M7.10386 8.1568C7.26746 7.3388 7.98569 6.75 8.81988 6.75H15.1803C16.0145 6.75 16.7327 7.33881 16.8963 8.1568L17.4963 11.1568C17.7129 12.2397 16.8846 13.25 15.7803 13.25H8.21988C7.11555 13.25 6.28729 12.2397 6.50386 11.1568L7.10386 8.1568ZM8.81988 8.25C8.70071 8.25 8.59811 8.33411 8.57473 8.45097L7.97473 11.451C7.9438 11.6057 8.06212 11.75 8.21988 11.75H15.7803C15.938 11.75 16.0564 11.6057 16.0254 11.451L15.4254 8.45097C15.402 8.33412 15.2994 8.25 15.1803 8.25H8.81988Z" fill="#0285F4"/>
<path d="M9.00006 14.25C8.58584 14.25 8.25006 14.5858 8.25006 15C8.25006 15.4142 8.58584 15.75 9.00006 15.75H15.0001C15.4143 15.75 15.7501 15.4142 15.7501 15C15.7501 14.5858 15.4143 14.25 15.0001 14.25H9.00006Z" fill="#0285F4"/>
<path fill-rule="evenodd" clip-rule="evenodd" d="M3.00006 16V13.9948C3.00006 13.8043 3.02727 13.6148 3.08083 13.4321L2.60529 13.1377C2.25312 12.9196 2.14438 12.4574 2.36243 12.1052C2.58048 11.753 3.04274 11.6443 3.39491 11.8623L3.53889 11.9515L5.12805 6.81727C5.64654 5.14213 7.19564 4 8.94919 4H15.0509C16.8045 4 18.3536 5.14213 18.8721 6.81727L20.4608 11.9502L20.6028 11.8623C20.9549 11.6443 21.4172 11.753 21.6352 12.1052C21.8533 12.4574 21.7446 12.9196 21.3924 13.1377L20.9189 13.4308C20.9727 13.6139 21.0001 13.8038 21.0001 13.9948V16C21.0001 16.6746 20.6661 17.2711 20.1545 17.6334C20.2154 17.7418 20.2501 17.8668 20.2501 18V19.5C20.2501 20.4665 19.4666 21.25 18.5001 21.25H17.5001C16.5336 21.25 15.7501 20.4665 15.7501 19.5V18H8.25006V19.5C8.25006 20.4665 7.46656 21.25 6.50006 21.25H5.50006C4.53356 21.25 3.75006 20.4665 3.75006 19.5V18C3.75006 17.8668 3.78476 17.7418 3.84562 17.6334C3.33402 17.2711 3.00006 16.6746 3.00006 16ZM4.50006 13.9948V16C4.50006 16.2761 4.72392 16.5 5.00006 16.5H19.0001C19.2762 16.5 19.5001 16.2761 19.5001 16V13.9948C19.5001 13.9446 19.4925 13.8948 19.4777 13.8469L17.4391 7.26079C17.1151 6.21383 16.1469 5.5 15.0509 5.5H8.94919C7.85322 5.5 6.88504 6.21383 6.56098 7.26079L4.52241 13.8469C4.50759 13.8948 4.50006 13.9446 4.50006 13.9948ZM17.2501 18H18.7501V19.5C18.7501 19.6381 18.6381 19.75 18.5001 19.75H17.5001C17.362 19.75 17.2501 19.6381 17.2501 19.5V18ZM5.25006 18V19.5C5.25006 19.6381 5.36199 19.75 5.50006 19.75H6.50006C6.63813 19.75 6.75006 19.6381 6.75006 19.5V18H5.25006Z" fill="#0285F4"/>
</svg>
