<svg width="24" height="24" viewBox="0 0 24 24" fill="none" xmlns="http://www.w3.org/2000/svg">
<path d="M13.7276 7.8181C13.643 7.47962 13.3361 7.2442 12.9873 7.25011C12.6384 7.25602 12.3398 7.5017 12.2666 7.84285L11.3788 11.986L10.7184 9.78449C10.63 9.48997 10.3708 9.27922 10.0645 9.25278C9.75814 9.22634 9.46669 9.38957 9.32918 9.66459L8.53647 11.25H7C6.58579 11.25 6.25 11.5858 6.25 12C6.25 12.4142 6.58579 12.75 7 12.75H9C9.28408 12.75 9.54378 12.5895 9.67082 12.3354L9.82506 12.0269L10.7816 15.2155C10.88 15.5435 11.188 15.7631 11.5301 15.7494C11.8722 15.7356 12.1616 15.4919 12.2334 15.1571L13.0562 11.3172L13.2724 12.1819C13.3559 12.5158 13.6558 12.75 14 12.75H17C17.4142 12.75 17.75 12.4142 17.75 12C17.75 11.5858 17.4142 11.25 17 11.25H14.5856L13.7276 7.8181Z" fill="#0285F4"/>
<path fill-rule="evenodd" clip-rule="evenodd" d="M11.1082 20.2579C11.6653 20.5807 12.3347 20.5807 12.8918 20.2579C15.1219 18.9654 20.8324 15.3014 21.8085 11.168C22.6899 7.43556 20.4529 3.55747 16.6649 3.50174C16.5867 3.50059 16.5073 3.5 16.4268 3.5C14.9019 3.5 13.5405 4.26167 12.7424 4.8248C12.3064 5.13244 11.6936 5.13244 11.2576 4.82479C10.4595 4.26167 9.09809 3.5 7.57317 3.5C7.49265 3.5 7.41331 3.50059 7.33511 3.50174C3.54708 3.55747 1.31012 7.43556 2.19153 11.168C3.16765 15.3014 8.87811 18.9654 11.1082 20.2579ZM20.3486 10.8232C19.9732 12.4128 18.6091 14.1004 16.8346 15.6477C15.1084 17.1528 13.2148 18.3369 12.1396 18.9601C12.0478 19.0133 11.9522 19.0133 11.8604 18.9601C10.7852 18.3369 8.89163 17.1528 7.16542 15.6477C5.39088 14.1004 4.02675 12.4128 3.65137 10.8232C2.91939 7.7236 4.81395 5.03899 7.35718 5.00157C7.42793 5.00053 7.49992 5 7.57317 5C8.63436 5 9.68295 5.54957 10.3928 6.05044C11.3473 6.72389 12.6527 6.72389 13.6072 6.05044C14.317 5.54957 15.3656 5 16.4268 5C16.5001 5 16.5721 5.00053 16.6428 5.00157C19.1861 5.03899 21.0806 7.7236 20.3486 10.8232Z" fill="#0285F4"/>
</svg>
